<svg width="28" height="20" viewBox="0 0 28 20" fill="none" xmlns="http://www.w3.org/2000/svg">
<mask id="path-1-inside-1" fill="white">
<path d="M26 0H2C1.46957 0 1.37507 0.624927 1 1C0.624927 1.37507 0 1.46957 0 2V18C0 18.5304 0.624927 18.6249 1 19C1.37507 19.3751 1.46957 20 2 20H26C26.5304 20 26.6249 19.3751 27 19C27.3751 18.6249 28 18.5304 28 18V2C28 1.46957 27.3751 1.37507 27 1C26.6249 0.624927 26.5304 0 26 0ZM24 2L14 9L4 2H24ZM2 18V3L13 11C13.1674 11.1161 13.7963 11 14 11C14.2037 11 14.8326 11.1161 15 11L26 3V18H2Z"/>
</mask>
<path d="M26 0H2C1.46957 0 1.37507 0.624927 1 1C0.624927 1.37507 0 1.46957 0 2V18C0 18.5304 0.624927 18.6249 1 19C1.37507 19.3751 1.46957 20 2 20H26C26.5304 20 26.6249 19.3751 27 19C27.3751 18.6249 28 18.5304 28 18V2C28 1.46957 27.3751 1.37507 27 1C26.6249 0.624927 26.5304 0 26 0ZM24 2L14 9L4 2H24ZM2 18V3L13 11C13.1674 11.1161 13.7963 11 14 11C14.2037 11 14.8326 11.1161 15 11L26 3V18H2Z" fill="#08979C"/>
<path d="M26 0V-8V0ZM2 0V-8V0ZM0 2H-8H0ZM0 18H-8H0ZM24 2L28.5877 8.55385L49.3789 -6H24V2ZM14 9L9.4123 15.5539L14 18.7652L18.5877 15.5539L14 9ZM4 2V-6H-21.3789L-0.587699 8.55385L4 2ZM2 18H-6V26H2V18ZM2 3L6.70537 -3.46989L-6 -12.7102V3H2ZM13 11L8.29463 17.4699L8.36674 17.5223L8.44 17.5732L13 11ZM14 11V3V11ZM15 11L19.56 17.5732L19.6333 17.5223L19.7054 17.4699L15 11ZM26 3H34V-12.7102L21.2946 -3.46989L26 3ZM26 18V26H34V18H26ZM26 -8H2V8H26V-8ZM2 -8C0.122684 -8 -1.60939 -7.39349 -3.00857 -6.38383C-4.22485 -5.50616 -4.92371 -4.51038 -5.19346 -4.10989C-5.34495 -3.88498 -5.46343 -3.68857 -5.50664 -3.61701C-5.57957 -3.49626 -5.54951 -3.54587 -5.53562 -3.568C-5.49628 -3.63067 -5.19685 -4.11686 -4.65685 -4.65685L6.65685 6.65685C7.38439 5.92932 7.83628 5.22436 8.01541 4.93903C8.06613 4.85824 8.10865 4.78833 8.13628 4.74266C8.15016 4.71972 8.16294 4.69849 8.17123 4.6847C8.18097 4.66851 8.18529 4.66133 8.18939 4.65455C8.21252 4.61624 8.16003 4.70524 8.07694 4.82859C7.944 5.02596 7.39166 5.84207 6.354 6.59085C5.13345 7.4716 3.6121 8 2 8V-8ZM-4.65685 -4.65685C-4.11686 -5.19685 -3.63067 -5.49628 -3.568 -5.53562C-3.54587 -5.54951 -3.49626 -5.57957 -3.61701 -5.50664C-3.68857 -5.46343 -3.88498 -5.34495 -4.10989 -5.19346C-4.51038 -4.92371 -5.50616 -4.22485 -6.38383 -3.00857C-7.39349 -1.60939 -8 0.122684 -8 2H8C8 3.6121 7.4716 5.13345 6.59085 6.354C5.84207 7.39166 5.02596 7.944 4.82859 8.07694C4.70524 8.16003 4.61624 8.21252 4.65455 8.18939C4.66133 8.18529 4.66851 8.18097 4.6847 8.17123C4.69849 8.16294 4.71972 8.15016 4.74266 8.13628C4.78833 8.10865 4.85824 8.06613 4.93903 8.01541C5.22436 7.83628 5.92932 7.38439 6.65685 6.65685L-4.65685 -4.65685ZM-8 2V18H8V2H-8ZM-8 18C-8 19.8773 -7.39349 21.6094 -6.38383 23.0086C-5.50616 24.2248 -4.51038 24.9237 -4.10989 25.1935C-3.88498 25.345 -3.68857 25.4634 -3.61701 25.5066C-3.49626 25.5796 -3.54587 25.5495 -3.568 25.5356C-3.63067 25.4963 -4.11686 25.1968 -4.65685 24.6569L6.65685 13.3431C5.92932 12.6156 5.22436 12.1637 4.93903 11.9846C4.85824 11.9339 4.78833 11.8913 4.74266 11.8637C4.71972 11.8498 4.69849 11.8371 4.6847 11.8288C4.66851 11.819 4.66133 11.8147 4.65455 11.8106C4.61624 11.7875 4.70524 11.84 4.82859 11.9231C5.02596 12.056 5.84207 12.6083 6.59085 13.646C7.4716 14.8666 8 16.3879 8 18H-8ZM-4.65685 24.6569C-5.19685 24.1169 -5.49628 23.6307 -5.53562 23.568C-5.54951 23.5459 -5.57957 23.4963 -5.50664 23.617C-5.46343 23.6886 -5.34495 23.885 -5.19346 24.1099C-4.92371 24.5104 -4.22485 25.5062 -3.00857 26.3838C-1.60939 27.3935 0.122684 28 2 28V12C3.6121 12 5.13345 12.5284 6.354 13.4092C7.39166 14.1579 7.944 14.974 8.07694 15.1714C8.16003 15.2948 8.21252 15.3838 8.18939 15.3455C8.18529 15.3387 8.18097 15.3315 8.17123 15.3153C8.16294 15.3015 8.15016 15.2803 8.13628 15.2573C8.10865 15.2117 8.06613 15.1418 8.01541 15.061C7.83628 14.7756 7.38439 14.0707 6.65685 13.3431L-4.65685 24.6569ZM2 28H26V12H2V28ZM26 28C27.8773 28 29.6094 27.3935 31.0086 26.3838C32.2248 25.5062 32.9237 24.5104 33.1935 24.1099C33.345 23.885 33.4634 23.6886 33.5066 23.617C33.5796 23.4963 33.5495 23.5459 33.5356 23.568C33.4963 23.6307 33.1968 24.1169 32.6569 24.6569L21.3431 13.3431C20.6156 14.0707 20.1637 14.7756 19.9846 15.061C19.9339 15.1418 19.8913 15.2117 19.8637 15.2573C19.8498 15.2803 19.8371 15.3015 19.8288 15.3153C19.819 15.3315 19.8147 15.3387 19.8106 15.3455C19.7875 15.3838 19.84 15.2948 19.9231 15.1714C20.056 14.974 20.6083 14.1579 21.646 13.4092C22.8666 12.5284 24.3879 12 26 12V28ZM32.6569 24.6569C32.1169 25.1968 31.6307 25.4963 31.568 25.5356C31.5459 25.5495 31.4963 25.5796 31.617 25.5066C31.6886 25.4634 31.885 25.345 32.1099 25.1935C32.5104 24.9237 33.5062 24.2248 34.3838 23.0086C35.3935 21.6094 36 19.8773 36 18H20C20 16.3879 20.5284 14.8666 21.4092 13.646C22.1579 12.6083 22.974 12.056 23.1714 11.9231C23.2948 11.84 23.3838 11.7875 23.3455 11.8106C23.3387 11.8147 23.3315 11.819 23.3153 11.8288C23.3015 11.8371 23.2803 11.8498 23.2573 11.8637C23.2117 11.8913 23.1418 11.9339 23.061 11.9846C22.7756 12.1637 22.0707 12.6156 21.3431 13.3431L32.6569 24.6569ZM36 18V2H20V18H36ZM36 2C36 0.122684 35.3935 -1.60939 34.3838 -3.00857C33.5062 -4.22485 32.5104 -4.92371 32.1099 -5.19346C31.885 -5.34495 31.6886 -5.46343 31.617 -5.50664C31.4963 -5.57957 31.5459 -5.54951 31.568 -5.53562C31.6307 -5.49628 32.1169 -5.19685 32.6569 -4.65685L21.3431 6.65685C22.0707 7.38439 22.7756 7.83628 23.061 8.01541C23.1418 8.06613 23.2117 8.10865 23.2573 8.13628C23.2803 8.15016 23.3015 8.16294 23.3153 8.17123C23.3315 8.18097 23.3387 8.18529 23.3455 8.18939C23.3838 8.21252 23.2948 8.16003 23.1714 8.07694C22.974 7.944 22.1579 7.39166 21.4092 6.354C20.5284 5.13345 20 3.6121 20 2H36ZM32.6569 -4.65685C33.1968 -4.11686 33.4963 -3.63067 33.5356 -3.568C33.5495 -3.54587 33.5796 -3.49626 33.5066 -3.61701C33.4634 -3.68857 33.345 -3.88498 33.1935 -4.10989C32.9237 -4.51038 32.2248 -5.50616 31.0086 -6.38383C29.6094 -7.39349 27.8773 -8 26 -8V8C24.3879 8 22.8666 7.4716 21.646 6.59085C20.6083 5.84207 20.056 5.02596 19.9231 4.82859C19.84 4.70524 19.7875 4.61624 19.8106 4.65455C19.8147 4.66133 19.819 4.66851 19.8288 4.6847C19.8371 4.69849 19.8498 4.71972 19.8637 4.74266C19.8913 4.78833 19.9339 4.85824 19.9846 4.93903C20.1637 5.22436 20.6156 5.92932 21.3431 6.65685L32.6569 -4.65685ZM19.4123 -4.55386L9.4123 2.44614L18.5877 15.5539L28.5877 8.55385L19.4123 -4.55386ZM18.5877 2.44614L8.5877 -4.55386L-0.587699 8.55385L9.4123 15.5539L18.5877 2.44614ZM4 10H24V-6H4V10ZM10 18V3H-6V18H10ZM-2.70537 9.46989L8.29463 17.4699L17.7054 4.53011L6.70537 -3.46989L-2.70537 9.46989ZM8.44 17.5732C9.59923 18.3774 10.6953 18.6896 11.2439 18.8192C11.8574 18.964 12.3739 19.0128 12.691 19.0329C13.3128 19.0724 13.8328 19.0392 14.0553 19.0233C14.3034 19.0056 14.5531 18.9791 14.5818 18.9762C14.8094 18.9533 14.4382 19 14 19V3C13.6529 3 13.3699 3.02208 13.2702 3.03002C13.1428 3.04017 13.0282 3.05172 12.9809 3.05647C12.8291 3.07174 12.873 3.06697 12.9175 3.0638C12.9363 3.06246 13.255 3.03647 13.7055 3.06509C13.9368 3.07979 14.3752 3.11852 14.9214 3.24752C15.4028 3.3612 16.4426 3.65168 17.56 4.42684L8.44 17.5732ZM14 19C13.5618 19 13.1906 18.9533 13.4182 18.9762C13.4469 18.9791 13.6966 19.0056 13.9447 19.0233C14.1672 19.0392 14.6872 19.0724 15.309 19.0329C15.6261 19.0128 16.1426 18.964 16.7561 18.8192C17.3047 18.6896 18.4008 18.3774 19.56 17.5732L10.44 4.42684C11.5574 3.65168 12.5972 3.3612 13.0786 3.24752C13.6248 3.11852 14.0632 3.07979 14.2945 3.06509C14.745 3.03647 15.0637 3.06246 15.0825 3.0638C15.127 3.06697 15.1709 3.07174 15.0191 3.05647C14.9718 3.05172 14.8572 3.04017 14.7298 3.03002C14.6301 3.02208 14.3471 3 14 3V19ZM19.7054 17.4699L30.7054 9.46989L21.2946 -3.46989L10.2946 4.53011L19.7054 17.4699ZM18 3V18H34V3H18ZM26 10H2V26H26V10Z" fill="#08979C" mask="url(#path-1-inside-1)"/>
</svg>
