<svg width="28" height="29" viewBox="0 0 28 29" fill="none" xmlns="http://www.w3.org/2000/svg">
<path d="M28 15C28.0002 14.9733 28 14.0267 28 14C28.0003 12.0117 27.8545 10.7956 27 8.99999C26.1456 7.20436 24.5435 5.25483 23 3.99999C22.9753 3.97716 23.0266 4.02158 23 3.99999C22.9664 3.97285 23.0359 4.02411 23 3.99999C21.0324 2.44895 18.491 1.27517 16 0.999992C13.509 0.724817 11.2592 0.915877 9.00004 1.99999C8.93345 2.02723 8.06201 1.96346 8.00004 1.99999C6.17464 2.9145 5.24033 4.3791 4.00004 5.99999C2.75975 7.62088 1.40474 10.0001 1.00004 12C0.999044 12.0048 1.00103 11.995 1.00004 12C0.999168 12.0046 1.00091 11.9954 1.00004 12C0.510729 14.4721 1.09879 16.6464 2.00004 19C2.90129 21.3535 3.98423 23.4857 6.00004 25C6.06673 25.0594 6.9238 24.9535 7.00004 25C7.0019 25.0012 6.99817 24.999 7.00004 25C8.74767 26.262 10.8664 27.6885 13 28C15.1336 28.3115 16.9641 27.7096 19 27C19.0551 26.9841 18.9471 27.0221 19 27C21.5684 26.0647 24.4217 24.2302 26 22C27.5784 19.7698 27.9734 17.7314 28 15C28.0002 15.0118 28.0002 14.988 28 15ZM25 13C24.8704 12.9976 25.1293 13 25 13C23.268 13.001 20.6812 13.5837 19 14C18.6344 12.9887 18.5147 11.9442 18 11C19.4976 10.051 20.7821 8.28791 22 6.99999C23.4879 8.56211 24.6922 10.8655 25 13ZM20 4.99999C18.994 6.03321 17.2193 7.2294 16 7.99999C14.9073 6.53235 14.4279 5.1448 13 3.99999C15.4513 3.53473 17.8422 3.7482 20 4.99999ZM9.00004 4.99999C10.6997 6.10636 12.7477 8.4054 14 9.99999C11.7424 10.9481 9.44896 11.0019 7.00004 11C6.3804 11 5.6152 11.0615 5.00004 11C5.83652 8.72474 6.90906 6.2288 9.00004 4.99999ZM4.00004 14C4.00004 13.7856 3.98737 14.2112 4.00004 14C4.81764 14.0939 6.17704 13.9997 7.00004 14C10.0335 14.0027 12.2352 13.247 15 12C15.4286 12.7844 15.6912 14.1613 16 15C15.08 15.3686 14.8593 15.5063 14 16C11.3795 17.5123 8.77375 19.55 7.00004 22C6.03199 21.0342 5.52365 20.2628 5.00004 19C4.47643 17.7372 3.99921 15.3669 4.00004 14ZM9.00004 24C10.5315 21.8717 12.7283 19.311 15 18C15.6422 17.6311 16.3176 17.2878 17 17C17.2202 18.1439 17.9994 19.8351 18 21C17.9997 22.2236 17.2417 23.8004 17 25C14.4034 25.7061 11.3609 25.2906 9.00004 24ZM21 23C21.0707 22.2933 20.9995 21.7102 21 21C20.9993 19.518 20.3064 18.4501 20 17C21.4152 16.6584 23.5441 16.0006 25 16C25.1289 16 24.8708 15.9973 25 16C24.7942 17.4094 23.7488 18.788 23 20C22.2512 21.212 22.1688 22.1846 21 23Z" fill="#08979C"/>
</svg>
