<svg width="24" height="19" viewBox="0 0 24 19" fill="none" xmlns="http://www.w3.org/2000/svg">
<path d="M22 2L24 0H17L13 12L7 0H0L3 3C3.21875 3.19902 3.02813 3.70769 3 4V14C3.06875 14.3825 3.26875 15.7232 3 16L0 19H7L5 16C4.86505 15.8637 4.06016 15.1818 4 15C3.93984 14.8182 3.97289 14.1895 4 14V5L11 19L17 5V16C17 16.2861 16.1875 16.8103 16 17L15 19H24L22 17C21.8375 16.8756 21.9656 16.2021 22 16V3C21.9838 2.90007 21.9626 2.09413 22 2C21.9195 2.0619 22.0374 1.90587 22 2Z" fill="#08979C"/>
</svg>
