<svg width="19" height="19" viewBox="0 0 19 19" fill="none" xmlns="http://www.w3.org/2000/svg">
<path d="M17.9983 9.00016L8.99829 1.00016C8.93131 0.940464 9.08837 1.00016 8.99829 1.00016H6.99829C6.82737 1.00016 6.86895 0.885548 6.99829 1.00016L14.9983 9.00016H0.998292C0.896666 9.00016 0.998292 8.8951 0.998292 9.00016V10.0002C0.998292 10.1052 0.896666 10.0002 0.998292 10.0002H14.9983L6.99829 18.0002C6.86895 18.1171 6.82737 18.0002 6.99829 18.0002H8.99829C9.04218 18.0002 8.96596 18.0312 8.99829 18.0002L17.9983 10.0002C18.0783 9.92828 17.9544 10.0998 17.9983 10.0002C18.0422 9.90048 17.9983 10.1097 17.9983 10.0002C17.9983 9.89062 18.0422 9.09983 17.9983 9.00016C17.9544 8.90048 18.0783 9.07203 17.9983 9.00016Z" fill="#08979C"/>
</svg>
